<?xml version="1.0" encoding="UTF-8"?>
<svg width="111px" height="113px" viewBox="0 0 111 113" version="1.1" xmlns="http://www.w3.org/2000/svg" xmlns:xlink="http://www.w3.org/1999/xlink">
    <!-- Generator: Sketch 48.2 (47327) - http://www.bohemiancoding.com/sketch -->
    <title>alternative</title>
    <desc>Created with Sketch.</desc>
    <defs></defs>
    <g id="Page-1" stroke="none" stroke-width="1" fill="none" fill-rule="evenodd">
        <g id="alternative" fill="#FFFFFF" fill-rule="nonzero">
            <g id="Capa_1" transform="translate(23.000000, 26.000000)">
                <g id="Group">
                    <path d="M4.10352341,55.7386446 L60.5367405,55.7386446 L60.5367405,8.33621246 L4.10352341,8.33621246 L4.10352341,55.7386446 Z M5.59945356,54.2181663 L5.59945356,18.3335475 L59.0408104,18.3335475 L59.0408104,54.2183564 L5.59945356,54.2183564 L5.59945356,54.2181663 Z M59.0408104,16.8130692 L43.3542998,16.8130692 L43.3542998,9.85669078 L59.0408104,9.85669078 L59.0408104,16.8130692 Z M41.8585566,9.85669078 L41.8585566,16.8130692 L5.59945356,16.8130692 L5.59945356,9.85669078 L41.8585566,9.85669078 L41.8585566,9.85669078 Z" id="Shape"></path>
                    <path d="M9.62986338,15.7886469 C10.9610542,15.7886469 12.0441077,14.6878206 12.0441077,13.3347849 C12.0441077,11.9817493 10.9610542,10.880923 9.62986338,10.880923 C8.29867253,10.880923 7.21580609,11.9817493 7.21580609,13.3347849 C7.21580609,14.6878206 8.29867253,15.7886469 9.62986338,15.7886469 Z M8.8818983,12.7972959 L8.8818983,12.8240943 C8.8818983,13.2439364 9.21679966,13.5843334 9.62986338,13.5843334 C10.0429271,13.5843334 10.3778285,13.2439364 10.3778285,12.8240943 L10.3778285,12.7971058 C10.4842265,12.9495337 10.5481775,13.1342719 10.5481775,13.334975 C10.5481775,13.8496569 10.1362357,14.2683586 9.62986338,14.2683586 C9.12367801,14.2683586 8.71173625,13.8496569 8.71173625,13.334975 C8.71173625,13.1342719 8.77568726,12.9495337 8.8818983,12.7972959 Z" id="Shape"></path>
                    <path d="M16.2925493,15.7886469 C17.6237401,15.7886469 18.7066066,14.6878206 18.7066066,13.3347849 C18.7066066,11.9817493 17.6237401,10.880923 16.2925493,10.880923 C14.9613584,10.880923 13.878305,11.9817493 13.878305,13.3347849 C13.878305,14.6878206 14.9613584,15.7886469 16.2925493,15.7886469 Z M15.5445842,12.7969157 L15.5445842,12.8239042 C15.5445842,13.2437463 15.8794856,13.5841434 16.2925493,13.5841434 C16.705613,13.5841434 17.0405144,13.2437463 17.0405144,12.8239042 L17.0405144,12.7971058 C17.1467254,12.9493437 17.2106764,13.1342719 17.2106764,13.3347849 C17.2106764,13.8494669 16.7987347,14.2681686 16.2925493,14.2681686 C15.7861769,14.2681686 15.3742352,13.8494669 15.3742352,13.3347849 C15.3742352,13.1342719 15.4381862,12.9493437 15.5445842,12.7969157 Z" id="Shape"></path>
                    <path d="M22.9552352,15.7886469 C24.2864261,15.7886469 25.3692925,14.6878206 25.3692925,13.3347849 C25.3692925,11.9817493 24.2864261,10.880923 22.9552352,10.880923 C21.6240444,10.880923 20.5409909,11.9817493 20.5409909,13.3347849 C20.5409909,14.6878206 21.6240444,15.7886469 22.9552352,15.7886469 Z M22.2072701,12.7969157 L22.2072701,12.8239042 C22.2072701,13.2437463 22.5421715,13.5841434 22.9552352,13.5841434 C23.3682989,13.5841434 23.7032003,13.2437463 23.7032003,12.8239042 L23.7032003,12.7971058 C23.8094113,12.9493437 23.8733623,13.1342719 23.8733623,13.3347849 C23.8733623,13.8494669 23.4614206,14.2681686 22.9552352,14.2681686 C22.4488629,14.2681686 22.0369211,13.8494669 22.0369211,13.3347849 C22.0369211,13.1342719 22.1008721,12.9493437 22.2072701,12.7969157 Z" id="Shape"></path>
                    <path d="M29.6179211,15.7886469 C30.949112,15.7886469 32.0319784,14.6878206 32.0319784,13.3347849 C32.0319784,11.9817493 30.949112,10.880923 29.6179211,10.880923 C28.2867303,10.880923 27.2036769,11.9817493 27.2036769,13.3347849 C27.2036769,14.6878206 28.2865433,15.7886469 29.6179211,15.7886469 Z M28.8699561,12.7969157 L28.8699561,12.8239042 C28.8699561,13.2437463 29.2048574,13.5841434 29.6179211,13.5841434 C30.0309848,13.5841434 30.3658862,13.2437463 30.3658862,12.8239042 L30.3658862,12.7971058 C30.4720972,12.9493437 30.5360483,13.1342719 30.5360483,13.3347849 C30.5360483,13.8494669 30.1241065,14.2681686 29.6179211,14.2681686 C29.1115488,14.2681686 28.699607,13.8494669 28.699607,13.3347849 C28.69942,13.1342719 28.763558,12.9493437 28.8699561,12.7969157 Z" id="Shape"></path>
                    <path d="M36.2802331,15.7886469 C37.6114239,15.7886469 38.6944773,14.6878206 38.6944773,13.3347849 C38.6944773,11.9817493 37.6114239,10.880923 36.2802331,10.880923 C34.9490422,10.880923 33.8661758,11.9817493 33.8661758,13.3347849 C33.8661758,14.6878206 34.9490422,15.7886469 36.2802331,15.7886469 Z M35.532268,12.7972959 L35.532268,12.8240943 C35.532268,13.2439364 35.8671693,13.5843334 36.2802331,13.5843334 C36.6932968,13.5843334 37.0281981,13.2439364 37.0281981,12.8240943 L37.0281981,12.7971058 C37.1345962,12.9495337 37.1985472,13.1342719 37.1985472,13.334975 C37.1985472,13.8496569 36.7866054,14.2683586 36.2802331,14.2683586 C35.7740477,14.2683586 35.3621059,13.8496569 35.3621059,13.334975 C35.3621059,13.1342719 35.4260569,12.9495337 35.532268,12.7972959 Z" id="Shape"></path>
                    <path d="M56.8788173,15.8150652 L56.8788173,10.8545047 L50.8008531,10.8545047 L50.8008531,15.8150652 L56.8788173,15.8150652 Z M52.2967832,12.3751731 L55.3828872,12.3751731 L55.3828872,14.2947769 L52.2967832,14.2947769 L52.2967832,12.3751731 Z" id="Shape"></path>
                    <path d="M81.0532356,24.4783706 C81.0532356,23.0645158 80.0977102,21.876452 78.8095274,21.5375754 L78.8095274,16.2111498 C78.8095274,15.7913077 78.474626,15.4509106 78.0615623,15.4509106 C77.6484986,15.4509106 77.3135972,15.7913077 77.3135972,16.2111498 L77.3135972,21.5375754 C76.0254143,21.876452 75.069889,23.0645158 75.069889,24.4783706 L75.069889,30.9402134 L77.3135972,30.9402134 L77.3135972,56.6919845 C77.3135972,58.6305944 75.7617567,60.2079006 73.8544457,60.2079006 C71.9471348,60.2079006 70.3952942,58.6307844 70.3952942,56.6919845 L70.3952942,54.411267 C70.3952942,51.6341134 68.172342,49.3748727 65.4402126,49.3748727 L64.6406379,49.3748727 L64.6406379,9.48170281 C64.6406379,6.84690394 62.5317504,4.70321957 59.9393034,4.70321957 L41.0771201,4.70321957 L41.0771201,4.07108071 L41.0771201,3.31084155 L41.0771201,2.33849566 C41.0771201,1.11983228 40.1017736,0.128670478 38.9029726,0.128670478 L25.6052755,0.128670478 C24.4064745,0.128670478 23.431128,1.12002234 23.431128,2.33849566 L23.431128,3.31084155 L23.431128,4.07108071 L23.431128,4.70340963 L4.70133449,4.70340963 C2.10888754,4.70340963 0,6.84690394 0,9.48170281 L0,54.5931543 C0,57.2047658 2.07223725,59.3324852 4.63308268,59.3697369 L4.63308268,61.5242547 L8.90901204,61.5242547 L8.90901204,59.3714474 L55.7312519,59.3714474 L55.7312519,61.5242547 L60.0071812,61.5242547 L60.0071812,59.3697369 C62.5680267,59.3324852 64.6402639,57.2047658 64.6402639,54.5931543 L64.6402639,50.895351 L65.4398386,50.895351 C67.3471495,50.895351 68.8989901,52.4726572 68.8989901,54.411267 L68.8989901,56.6919845 C68.8989901,59.4689481 71.1219423,61.7283789 73.8540717,61.7283789 C76.5862012,61.7283789 78.8091534,59.4691382 78.8091534,56.6919845 L78.8091534,30.9402134 L81.0528616,30.9402134 L81.0528616,24.4783706 L81.0532356,24.4783706 Z M24.9270581,2.33849566 C24.9270581,1.95837608 25.2312929,1.6491488 25.6052755,1.6491488 L38.9029726,1.6491488 C39.2769551,1.6491488 39.5811899,1.95837608 39.5811899,2.33849566 L39.5811899,2.55060238 L24.9270581,2.55060238 L24.9270581,2.33849566 L24.9270581,2.33849566 Z M24.9270581,4.07108071 L39.5811899,4.07108071 L39.5811899,4.70340963 L24.9270581,4.70340963 L24.9270581,4.07108071 Z M7.41326887,60.0039664 L6.12919983,60.0039664 L6.12919983,59.3716375 L7.41326887,59.3716375 L7.41326887,60.0039664 Z M57.227369,60.0039664 L57.227369,59.3716375 L58.5114381,59.3716375 L58.5114381,60.0039664 L57.227369,60.0039664 Z M63.1447078,54.5931543 C63.1447078,56.3895994 61.7069319,57.8511592 59.9393034,57.8511592 L4.70133449,57.8511592 C2.93370602,57.8511592 1.49593015,56.3895994 1.49593015,54.5931543 L1.49593015,9.48170281 C1.49593015,7.68525768 2.93370602,6.22369789 4.70133449,6.22369789 L59.9393034,6.22369789 C61.7067449,6.22369789 63.1447078,7.68506762 63.1447078,9.48170281 L63.1447078,54.5931543 Z M78.0615623,22.9580823 C78.8863808,22.9580823 79.5573054,23.6400168 79.5573054,24.4785606 L79.5573054,26.8541179 L76.5658191,26.8541179 L76.5658191,24.4785606 C76.5658191,23.6400168 77.2367438,22.9580823 78.0615623,22.9580823 Z M76.5658191,29.419735 L76.5658191,28.3744062 L79.5573054,28.3744062 L79.5573054,29.419735 L76.5658191,29.419735 Z" id="Shape"></path>
                </g>
            </g>
        </g>
    </g>
</svg>