<?xml version="1.0" encoding="UTF-8"?>
<svg width="111px" height="113px" viewBox="0 0 111 113" version="1.1" xmlns="http://www.w3.org/2000/svg" xmlns:xlink="http://www.w3.org/1999/xlink">
    <!-- Generator: Sketch 48.2 (47327) - http://www.bohemiancoding.com/sketch -->
    <title>folk</title>
    <desc>Created with Sketch.</desc>
    <defs></defs>
    <g id="Page-1" stroke="none" stroke-width="1" fill="none" fill-rule="evenodd">
        <g id="folk" fill="#FFFFFF">
            <g id="004-banjo" transform="translate(22.000000, 22.000000)">
                <path d="M20.6409854,53.3611387 L14.5083805,47.2439513 C14.0846244,46.8213917 13.3984878,46.8213917 12.9753951,47.2439513 C12.5518049,47.6660146 12.5518049,48.3511436 12.9753951,48.7732068 L19.1075024,54.8902287 C19.3192976,55.101674 19.5972683,55.2069002 19.8745756,55.2069002 C20.1518829,55.2069002 20.4291902,55.101674 20.6409854,54.8902287 C21.064078,54.4681655 21.064078,53.7832019 20.6409854,53.3611387 Z" id="Fill-1"></path>
                <path d="M67.8620098,6.24541119 C67.8620098,5.95835523 67.7474049,5.68370803 67.5445659,5.48086618 L62.4341171,0.382851582 C62.2307805,0.179844282 61.9548,0.0661800487 61.6670439,0.0661800487 C61.3801171,0.0661800487 61.1041366,0.179844282 60.9006341,0.382851582 L59.6230634,1.65731387 L58.8566537,0.892768856 C58.4328976,0.470043796 57.7469268,0.470043796 57.3231707,0.892768856 C56.900078,1.31483212 56.900078,1.99979562 57.3231707,2.42185888 L58.0902439,3.18706569 L56.556761,4.71615572 L55.7903512,3.95161071 C55.3672585,3.52905109 54.6804585,3.52905109 54.2575317,3.95161071 C53.8337756,4.37367397 53.8337756,5.05880292 54.2575317,5.48086618 L55.0239415,6.24541119 L53.7463707,7.51987348 C53.627122,7.63883212 53.5377268,7.78360097 53.4844878,7.94243309 L52.5484098,10.7441655 L30.690722,31.3718248 C27.0497366,29.0134988 22.6967415,27.9044866 18.3313073,28.2418394 C13.6136,28.606326 9.17120976,30.6473187 5.82113171,33.9892457 C2.06736585,37.7338783 0,42.7129343 0,48.0086618 C0,53.3042238 2.06736585,58.2832798 5.82113171,62.0279124 C9.57473171,65.772545 14.5659317,67.8348808 19.8745756,67.8348808 C25.1832195,67.8348808 30.1737561,65.772545 33.9273561,62.0279124 C37.2912,58.6724185 39.3384976,54.2219757 39.692761,49.4963893 C40.0213171,45.122219 38.8888683,40.7662482 36.4942732,37.1314745 L57.1579805,15.3418589 L59.9663805,14.4085547 C60.1257659,14.3549489 60.2708878,14.2657713 60.3901366,14.1468127 L61.6677073,12.8723504 L62.4341171,13.6368954 C62.646078,13.8483406 62.9233854,13.9535669 63.2005268,13.9535669 C63.4778341,13.9535669 63.7558049,13.8483406 63.9677659,13.6368954 C64.3906927,13.2149976 64.3906927,12.5298686 63.9677659,12.1078054 L63.2005268,11.3432603 L64.7341756,9.81417032 L65.5005854,10.5787153 C65.7123805,10.7893333 65.9896878,10.8953869 66.2669951,10.8953869 C66.5443024,10.8953869 66.8221073,10.7899951 67.0334049,10.5787153 C67.457161,10.1559903 67.457161,9.47168856 67.0334049,9.0496253 L66.2669951,8.28441849 L67.5445659,7.0099562 C67.7474049,6.80694891 67.8620098,6.5323017 67.8620098,6.24541119 Z M7.35395122,60.4981606 C7.09737561,60.2422092 6.85058537,59.9784818 6.61142439,59.7096253 L11.1866634,55.1455182 L12.7201463,56.6746083 L8.1442439,61.2387153 C7.87473171,61.0009635 7.61119024,60.7547737 7.35395122,60.4981606 Z M28.2321073,42.6967202 C27.8206244,43.130365 27.8393659,43.8148321 28.2742341,44.2251484 C28.484039,44.4230268 28.751561,44.5211387 29.0192488,44.5211387 C29.306839,44.5211387 29.5939317,44.4074745 29.8070537,44.1826277 L34.9588,38.7504039 C39.2625366,45.6812749 38.2713951,54.635601 32.3945366,60.4981606 C29.0502634,63.8342968 24.6033951,65.6716204 19.8739122,65.6716204 C16.2478537,65.6716204 12.7881463,64.5904039 9.86381463,62.5823358 L11.4316293,61.0189976 C13.9381756,62.6372652 16.8736195,63.502073 19.875239,63.502073 C20.241278,63.502073 20.6086439,63.4891679 20.9760098,63.4633577 C24.7083805,63.2009538 28.2191707,61.6045255 30.8610537,58.9684088 C32.7794829,57.055309 34.1651902,54.6673674 34.868078,52.0633479 C35.5504,49.5395718 35.5827415,46.8620925 34.9627805,44.3214404 C34.8214732,43.7412068 34.2351805,43.3849927 33.6527024,43.5259562 C33.0715512,43.6674161 32.7146341,44.2522822 32.8559415,44.8326813 C33.9721366,49.4090316 32.6537659,54.1218783 29.3282341,57.4393187 C24.9933171,61.7635231 18.1810439,62.5365061 13.003922,59.4498686 L15.0195415,57.4393187 C15.222878,57.2363114 15.3369854,56.9616642 15.3369854,56.6746083 C15.3369854,56.3877178 15.2222146,56.1130706 15.0195415,55.9100633 L11.9530732,52.8512214 C11.5294829,52.4291582 10.8433463,52.4291582 10.4202537,52.8512214 L8.40413659,54.8617713 C5.31063415,49.6974112 6.08533659,42.9015474 10.4202537,38.5773431 C13.7121171,35.2934891 18.3954927,33.9679027 22.9473463,35.0330706 C23.5304878,35.1687397 24.1136293,34.8080584 24.2502927,34.2265012 C24.3869561,33.6454404 24.0247317,33.063056 23.4424195,32.9267251 C18.1545073,31.6904818 12.7130146,33.2311533 8.88677073,37.0480876 C6.24472195,39.683708 4.64456585,43.1859562 4.38152195,46.9092457 C4.14302439,50.280292 5.01193171,53.6242044 6.83234146,56.4304039 L5.26452683,57.9944039 C3.25156098,55.0770219 2.16770732,51.6258978 2.16770732,48.0086618 C2.16770732,43.2906861 4.00967805,38.8551338 7.35395122,35.5183358 C13.1944878,29.6920097 22.1311805,28.6812749 29.0651902,32.9060438 L23.6374634,38.028545 C23.2020976,38.4390268 23.1831902,39.1233285 23.5946732,39.5569732 C24.0059902,39.9907835 24.6921268,40.0101411 25.1274927,39.5996594 L53.4697268,12.8516691 L55.0446732,14.4227835 L28.2321073,42.6967202 Z M59.0374341,12.437382 L56.8496585,13.1645353 L54.7310439,11.0512409 L55.4606341,8.86862287 L61.6670439,2.67714842 L65.2446732,6.24541119 L59.0374341,12.437382 Z" id="Fill-3"></path>
            </g>
        </g>
    </g>
</svg>